:SAMPLES-PER-SECOND 30
:FULLY-SPECIFIED
:DEGREES
32
root  2.57573 40.8875 -3.71274 -148.914 -87.7968 149.348
RightUpLeg  -2.20162 -10.0846 -9.48515
RightLeg  5.59824 -2.81928 2.95177
RightFoot  -0.25379 -0.197074 2.01075
RightToes  0.000482159 0.542163 -0.142577
Spine  4.56753 0.0803248 -2.46407
Spine1  1.47379 -0.19608 1.39815
HEad  -20.2813 -4.51062 -1.62323
LeftShoulder1  3.0711 -4.81019 -30.8096
LeftArm  -36.7307 28.6423 -12.2082
LeftForeArm  48.6967 -55.1022 -11.9964
LeftHand  -0.25398 0.0180481 5.50724
RightShoulder  1.71793 2.50834 22.2943
RightArm  -29.3713 -21.9009 20.5407
RightForeArm  -1.65876 43.6206 10.7781
RightHand  -1.38816 2.73601 -19.932
LeftUpLeg  -0.915964 6.1586 3.73969
LeftLeg  4.75637 16.7631 -3.16972
LeftFoot  -2.04999 0.110674 -1.21019
LeftToes  1.06246e-005 4.65855e-005 -8.18502e-006
33
root  2.69087 40.8744 -3.65947 -147.357 -87.8968 147.53
RightUpLeg  -2.17197 -10.1818 -9.60899
RightLeg  5.80078 -2.80241 2.95606
RightFoot  -0.223295 -0.198877 2.01868
RightToes  0.000482159 0.542163 -0.142577
Spine  4.37017 0.0456186 -2.34894
Spine1  2.1252 -0.1784 1.14216
HEad  -21.7527 -4.52909 -1.92751
LeftShoulder1  3.79366 -5.91528 -34.161
LeftArm  -35.5343 27.7153 -13.9402
LeftForeArm  50.3765 -56.205 -12.4535
LeftHand  -0.25398 0.0180481 5.50724
RightShoulder  2.1012 3.34321 24.5391
RightArm  -28.2394 -21.772 23.4008
RightForeArm  2.96105 43.6438 10.4905
RightHand  -1.27617 2.49258 -18.9058
LeftUpLeg  -1.04953 6.37107 3.66938
LeftLeg  5.20563 16.4318 -3.05952
LeftFoot  -2.11387 0.0991009 -1.07166
LeftToes  1.06246e-005 4.65855e-005 -8.18502e-006
34
root  2.81342 40.8606 -3.59921 -145.243 -87.9947 145.241
RightUpLeg  -2.25582 -10.2505 -9.71561
RightLeg  5.99105 -2.81188 2.92133
RightFoot  -0.164787 -0.198527 2.0065
RightToes  0.000482159 0.542163 -0.142577
Spine  4.06704 -0.0503168 -2.19838
Spine1  2.65637 -0.189204 0.748565
HEad  -23.1334 -4.77201 -2.12329
LeftShoulder1  4.52873 -6.96993 -37.0791
LeftArm  -33.7706 26.4712 -15.627
LeftForeArm  51.3445 -55.9181 -12.2276
LeftHand  -0.25398 0.0180481 5.50724
RightShoulder  2.43001 4.00163 26.306
RightArm  -27.7224 -20.7839 26.9175
RightForeArm  8.21095 41.4957 9.38415
RightHand  -1.16496 2.44688 -17.3944
LeftUpLeg  -1.18195 6.50578 3.57349
LeftLeg  5.45418 16.1721 -3.01606
LeftFoot  -2.23047 0.0971734 -1.05928
LeftToes  1.06246e-005 4.65855e-005 -8.18502e-006
35
root  2.94691 40.8434 -3.53802 -143.438 -88.1001 143.216
RightUpLeg  -2.27232 -10.2692 -9.79639
RightLeg  6.09688 -2.83982 2.85932
RightFoot  -0.0848233 -0.201472 2.04427
RightToes  0.000482159 0.542163 -0.142577
Spine  3.80842 -0.159094 -2.01528
Spine1  3.11569 -0.197905 0.27932
HEad  -24.5481 -5.12019 -2.15752
LeftShoulder1  5.1499 -7.82712 -39.2121
LeftArm  -31.9144 24.9232 -17.9159
LeftForeArm  52.2639 -54.4972 -11.4353
LeftHand  -0.25398 0.0180481 5.50724
RightShoulder  2.72506 4.60059 27.5949
RightArm  -27.6166 -19.3976 30.7563
RightForeArm  12.2489 37.9016 7.98008
RightHand  -1.04922 2.27892 -16.0422
LeftUpLeg  -1.26656 6.58427 3.49407
LeftLeg  5.68698 16.0021 -2.97034
LeftFoot  -2.39372 0.0936787 -1.01028
LeftToes  1.06246e-005 4.65855e-005 -8.18502e-006
36
root  3.09433 40.8261 -3.47563 -141.883 -88.2622 141.356
RightUpLeg  -2.14229 -10.2806 -9.85969
RightLeg  6.10766 -2.89712 2.82659
RightFoot  -0.0229928 -0.205347 2.08088
RightToes  0.000482159 0.542163 -0.142577
Spine  3.7165 -0.198621 -1.84857
Spine1  3.46268 -0.156473 -0.108892
HEad  -25.977 -5.60622 -2.06681
LeftShoulder1  5.63981 -8.50427 -40.6503
LeftArm  -30.1613 23.0679 -20.9373
LeftForeArm  53.0561 -52.3314 -10.3739
LeftHand  -0.25398 0.0180481 5.50724
RightShoulder  3.05309 5.26751 28.8112
RightArm  -27.2491 -18.0276 34.0267
RightForeArm  14.1791 33.6663 6.6756
RightHand  -0.985788 2.20697 -15.233
LeftUpLeg  -1.34947 6.6145 3.43642
LeftLeg  6.0322 15.8259 -2.83843
LeftFoot  -2.52877 0.0875022 -0.912393
LeftToes  1.06246e-005 4.65855e-005 -8.18502e-006
37
root  3.25185 40.816 -3.41053 -141.591 -88.411 140.77
RightUpLeg  -2.01906 -10.2994 -9.89872
RightLeg  6.07782 -2.93789 2.82595
RightFoot  0.0930523 -0.210834 2.11136
RightToes  0.000482159 0.542163 -0.142577
Spine  3.7885 -0.102268 -1.85155
Spine1  3.55808 -0.0450758 -0.192572
HEad  -27.2852 -6.23938 -2.0053
LeftShoulder1  6.10266 -9.13914 -41.8731
LeftArm  -27.9977 21.248 -23.9697
LeftForeArm  53.0821 -50.1132 -9.44593
LeftHand  -0.25398 0.0180481 5.50724
RightShoulder  3.39275 5.92091 30.0321
RightArm  -26.3234 -16.7018 36.5144
RightForeArm  15.3175 29.143 5.48306
RightHand  -0.960677 2.42056 -14.4697
LeftUpLeg  -1.42321 6.58197 3.40296
LeftLeg  6.29826 15.6628 -2.72265
LeftFoot  -2.59131 0.0856338 -0.879297
LeftToes  1.06246e-005 4.65855e-005 -8.18502e-006
38
root  3.41153 40.8132 -3.34564 -143.732 -88.4238 142.695
RightUpLeg  -2.01479 -10.2837 -9.91974
RightLeg  5.98386 -2.90177 2.79897
RightFoot  0.360498 -0.228119 2.24851
RightToes  0.000482159 0.542163 -0.142577
Spine  3.9095 0.07252 -2.09971
Spine1  3.41445 0.0812199 0.0121741
HEad  -28.4299 -6.75939 -2.07895
LeftShoulder1  6.56611 -9.75589 -43.0396
LeftArm  -24.8884 19.8909 -26.3971
LeftForeArm  52.6094 -48.5226 -8.86724
LeftHand  -0.25398 0.0180481 5.50724
RightShoulder  3.66436 6.42524 30.9541
RightArm  -24.9839 -15.2607 38.7496
RightForeArm  17.1325 24.4773 4.34682
RightHand  -0.8988 2.55567 -13.3355
LeftUpLeg  -1.41924 6.52901 3.40207
LeftLeg  6.28432 15.6464 -2.79426
LeftFoot  -2.58677 0.0861868 -0.886716
LeftToes  1.06246e-005 4.65855e-005 -8.18502e-006
39
root  3.56884 40.8102 -3.282 -145.634 -88.3334 144.425
RightUpLeg  -2.03855 -10.2458 -9.98032
RightLeg  5.78236 -2.82622 2.74052
RightFoot  0.685664 -0.25277 2.44296
RightToes  0.000482159 0.542163 -0.142577
Spine  3.98799 0.18079 -2.40111
Spine1  3.21998 0.156155 0.141831
HEad  -29.4485 -6.97837 -2.20315
LeftShoulder1  6.93481 -10.2613 -43.8363
LeftArm  -21.1291 19.0157 -28.3111
LeftForeArm  53.116 -47.7845 -8.56916
LeftHand  -0.25398 0.0180481 5.50724
RightShoulder  3.86597 6.81983 31.5006
RightArm  -23.4166 -13.8965 41.0046
RightForeArm  19.5053 20.3047 3.50192
RightHand  -0.785057 2.24394 -12.1392
LeftUpLeg  -1.37174 6.52769 3.39195
LeftLeg  6.12746 15.7409 -3.01053
LeftFoot  -2.50802 0.0838812 -0.857636
LeftToes  1.06246e-005 4.65855e-005 -8.18502e-006
40
root  3.72772 40.8031 -3.2126 -144.865 -88.2984 143.497
RightUpLeg  -2.05534 -10.2574 -10.0994
RightLeg  5.606 -2.80039 2.70766
RightFoot  0.9366 -0.260468 2.4803
RightToes  0.000482159 0.542163 -0.142577
Spine  4.06605 0.187325 -2.46281
Spine1  3.03496 0.208208 -0.0830131
HEad  -30.3551 -7.12247 -2.22102
LeftShoulder1  7.17373 -10.6348 -44.1668
LeftArm  -17.5326 18.3203 -29.9205
LeftForeArm  55.3356 -47.6022 -8.37348
LeftHand  -0.25398 0.0180481 5.50724
RightShoulder  4.05887 7.21019 31.939
RightArm  -21.5793 -13.1225 42.8974
RightForeArm  21.655 17.6468 3.23841
RightHand  -0.688753 1.76362 -11.3592
LeftUpLeg  -1.45005 6.56979 3.30444
LeftLeg  6.14142 15.7434 -3.12418
LeftFoot  -2.38372 0.0815501 -0.841134
LeftToes  1.06246e-005 4.65855e-005 -8.18502e-006
41
root  3.89991 40.7917 -3.13097 -144.046 -88.3578 142.528
RightUpLeg  -2.19965 -10.301 -10.1868
RightLeg  5.65211 -2.822 2.69723
RightFoot  1.23406 -0.255681 2.39583
RightToes  0.000482159 0.542163 -0.142577
Spine  4.27329 0.203899 -2.25445
Spine1  2.74326 0.311674 -0.482019
HEad  -31.3787 -7.44523 -2.12629
LeftShoulder1  7.36237 -10.9353 -44.3969
LeftArm  -14.6037 17.6416 -31.0667
LeftForeArm  57.9561 -47.5506 -8.20557
LeftHand  -0.25398 0.0180481 5.50724
RightShoulder  4.23866 7.55151 32.3984
RightArm  -18.894 -13.0804 44.042
RightForeArm  22.9911 16.9516 3.37129
RightHand  -0.648863 1.53063 -11.0481
LeftUpLeg  -1.77021 6.6676 3.13275
LeftLeg  6.50791 15.5862 -2.94973
LeftFoot  -2.30924 0.0733334 -0.752647
LeftToes  1.06246e-005 4.65855e-005 -8.18502e-006
42
root  4.09709 40.7709 -3.04198 -146.528 -88.4182 144.809
RightUpLeg  -2.48372 -10.3044 -10.1807
RightLeg  5.92018 -2.80122 2.64817
RightFoot  1.70576 -0.265305 2.42031
RightToes  0.000482159 0.542163 -0.142577
Spine  4.70208 0.276448 -2.01986
Spine1  2.35603 0.434861 -0.717636
HEad  -33.1497 -7.79487 -2.04391
LeftShoulder1  7.53021 -11.1674 -44.7063
LeftArm  -12.5412 17.1313 -31.6483
LeftForeArm  59.2238 -47.5602 -8.13873
LeftHand  -0.25398 0.0180481 5.50724
RightShoulder  4.3462 7.73634 32.7251
RightArm  -15.2906 -13.3092 44.526
RightForeArm  23.5116 17.6655 3.61
RightHand  -0.624708 1.35357 -10.9036
LeftUpLeg  -2.28745 7.04594 2.92153
LeftLeg  7.28672 15.2751 -2.48714
LeftFoot  -2.3168 0.0398651 -0.328046
LeftToes  1.06246e-005 4.65855e-005 -8.18502e-006
43
root  4.32196 40.734 -2.95315 -151.25 -88.4353 149.203
RightUpLeg  -2.74436 -10.3235 -10.1594
RightLeg  6.30895 -2.69275 2.58066
RightFoot  2.12771 -0.278803 2.48337
RightToes  0.000482159 0.542163 -0.142577
Spine  5.35561 0.304141 -1.89389
Spine1  2.02748 0.475302 -0.799064
HEad  -36.1428 -7.93393 -2.00329
LeftShoulder1  7.61899 -11.3059 -44.816
LeftArm  -11.5727 17.037 -31.8977
LeftForeArm  58.9961 -47.8961 -8.26914
LeftHand  -0.25398 0.0180481 5.50724
RightShoulder  4.39163 7.82467 32.8244
RightArm  -11.1324 -13.3881 44.6582
RightForeArm  22.7486 18.9889 3.78471
RightHand  -0.590191 0.986962 -10.8652
LeftUpLeg  -2.90582 8.00722 2.68453
LeftLeg  8.4668 14.5478 -1.81633
LeftFoot  -2.35509 -0.00774556 0.280643
LeftToes  1.06246e-005 4.65855e-005 -8.18502e-006
44
root  4.5696 40.6831 -2.85794 -156.88 -88.4225 154.423
RightUpLeg  -2.97734 -10.4565 -10.1833
RightLeg  6.81803 -2.5101 2.58547
RightFoot  2.31782 -0.269125 2.37848
RightToes  0.000482159 0.542163 -0.142577
Spine  6.20285 0.23838 -1.70129
Spine1  1.69158 0.450204 -1.01798
HEad  -39.9214 -7.95128 -1.87279
LeftShoulder1  7.63301 -11.4044 -44.5928
LeftArm  -11.6672 17.4078 -31.9244
LeftForeArm  58.3882 -48.6346 -8.56693
LeftHand  -0.25398 0.0180481 5.50724
RightShoulder  4.45661 7.99001 32.8321
RightArm  -6.94189 -13.4 44.4989
RightForeArm  20.3143 20.4944 3.90884
RightHand  -0.586715 0.772185 -11.149
LeftUpLeg  -3.57533 9.50267 2.42263
LeftLeg  9.85787 13.2023 -1.03559
LeftFoot  -2.47395 -0.0277454 0.537742
LeftToes  1.06246e-005 4.65855e-005 -8.18502e-006
45
root  4.83521 40.6238 -2.74244 -165.345 -88.3072 162.497
RightUpLeg  -3.31631 -10.6322 -10.1865
RightLeg  7.36163 -2.22251 2.66831
RightFoot  2.58499 -0.261663 2.28558
RightToes  0.000482159 0.542163 -0.142577
Spine  7.18298 0.180843 -1.29054
Spine1  1.0637 0.488718 -1.49264
HEad  -43.3406 -7.99556 -1.57767
LeftShoulder1  7.65849 -11.539 -44.3303
LeftArm  -12.2397 17.9884 -31.5291
LeftForeArm  58.0454 -49.3246 -8.83972
LeftHand  -0.25398 0.0180481 5.50724
RightShoulder  4.56242 8.24253 32.8995
RightArm  -3.2477 -13.4872 43.9303
RightForeArm  17.2428 21.8711 4.03596
RightHand  -0.611859 0.895495 -11.413
LeftUpLeg  -4.25995 11.0358 2.18174
LeftLeg  11.1951 11.7708 -0.279187
LeftFoot  -2.76572 -0.0281293 0.506848
LeftToes  1.06246e-005 4.65855e-005 -8.18502e-006
46
root  5.11562 40.5606 -2.60603 -173.835 -88.0534 170.618
RightUpLeg  -3.66521 -10.7367 -10.1744
RightLeg  7.69151 -1.81719 2.75076
RightFoot  3.16453 -0.283481 2.39616
RightToes  0.000482159 0.542163 -0.142577
Spine  8.12524 0.194455 -0.8984
Spine1  0.10937 0.599172 -2.02297
HEad  -45.5624 -7.98323 -1.25234
LeftShoulder1  7.70937 -11.6869 -44.1845
LeftArm  -12.6854 18.4353 -30.7409
LeftForeArm  57.738 -49.4415 -8.90218
LeftHand  -0.25398 0.0180481 5.50724
RightShoulder  4.63521 8.39864 33.0018
RightArm  -0.471261 -13.4674 43.0956
RightForeArm  15.3381 22.7477 4.15345
RightHand  -0.579034 0.839362 -10.8847
LeftUpLeg  -4.89457 12.3504 1.9339
LeftLeg  12.3468 10.8006 0.387186
LeftFoot  -3.05336 -0.0491946 0.800129
LeftToes  1.06246e-005 4.65855e-005 -8.18502e-006
